<?xml version="1.0" encoding="UTF-8" standalone="no"?>
<svg
   id="Camada_1"
   data-name="Camada 1"
   viewBox="0 0 173.42 32.06"
   version="1.1"
   sodipodi:docname="developerhub-white.svg"
   inkscape:version="1.3.2 (091e20ef0f, 2023-11-25, custom)"
   xmlns:inkscape="http://www.inkscape.org/namespaces/inkscape"
   xmlns:sodipodi="http://sodipodi.sourceforge.net/DTD/sodipodi-0.dtd"
   xmlns="http://www.w3.org/2000/svg"
   xmlns:svg="http://www.w3.org/2000/svg">
  <sodipodi:namedview
     id="namedview15"
     pagecolor="#ffffff"
     bordercolor="#000000"
     borderopacity="0.25"
     inkscape:showpageshadow="2"
     inkscape:pageopacity="0.0"
     inkscape:pagecheckerboard="0"
     inkscape:deskcolor="#d1d1d1"
     inkscape:zoom="10.78307"
     inkscape:cx="86.709999"
     inkscape:cy="15.997299"
     inkscape:window-width="2560"
     inkscape:window-height="1372"
     inkscape:window-x="1920"
     inkscape:window-y="32"
     inkscape:window-maximized="1"
     inkscape:current-layer="Camada_1" />
  <defs
     id="defs1">
    <style
       id="style1">
      .cls-1 {
        fill: #fff;
      }

      .cls-2 {
        fill: #ffbe00;
      }

      .cls-3 {
        fill: #212121;
      }

      .cls-4 {
        fill: #17296e;
      }
    </style>
  </defs>
  <g
     id="g12"
     style="fill:#ffffff">
    <path
       class="cls-3"
       d="M47.76,8.23c1.52,0,2.83,.29,3.93,.86,1.1,.57,1.95,1.39,2.56,2.44,.61,1.05,.91,2.31,.91,3.76s-.3,2.68-.91,3.71-1.46,1.83-2.56,2.39c-1.1,.56-2.41,.84-3.93,.84h-4.8V8.23h4.8Zm0,12.32c1.76,0,3.1-.46,4.01-1.39,.91-.93,1.37-2.22,1.37-3.87s-.46-3-1.37-3.95c-.91-.95-2.25-1.43-4.01-1.43h-2.8v10.64h2.8Z"
       id="path1"
       style="fill:#ffffff" />
    <path
       class="cls-3"
       d="M61.34,22.37c-.96,0-1.81-.22-2.55-.67-.74-.45-1.32-1.06-1.74-1.85s-.63-1.69-.63-2.7,.21-1.84,.62-2.6c.41-.76,.98-1.36,1.71-1.8,.73-.44,1.55-.66,2.47-.66s1.76,.2,2.48,.61c.72,.41,1.28,.97,1.68,1.7,.4,.73,.59,1.56,.58,2.51,0,.16,0,.32-.02,.49-.01,.17-.03,.35-.06,.55h-7.4c.04,.53,.19,1,.45,1.41,.26,.41,.59,.72,1,.95,.41,.23,.87,.34,1.39,.34,.67,0,1.25-.13,1.74-.39,.49-.26,.84-.61,1.04-1.05l1.64,.58c-.4,.81-.98,1.45-1.75,1.9-.77,.45-1.65,.68-2.65,.68Zm2.56-6.04c0-.48-.12-.91-.36-1.3-.24-.39-.56-.69-.97-.91-.41-.22-.86-.33-1.37-.33-.45,0-.87,.11-1.25,.33-.38,.22-.7,.52-.96,.9-.26,.38-.42,.82-.49,1.31h5.4Z"
       id="path2"
       style="fill:#ffffff" />
    <path
       class="cls-3"
       d="M68.74,12.23l2.88,7.98,2.9-7.98h2l-3.9,10h-2.04l-3.88-10h2.04Z"
       id="path3"
       style="fill:#ffffff" />
    <path
       class="cls-3"
       d="M82.16,22.37c-.96,0-1.81-.22-2.55-.67-.74-.45-1.32-1.06-1.74-1.85s-.63-1.69-.63-2.7,.21-1.84,.62-2.6c.41-.76,.98-1.36,1.71-1.8,.73-.44,1.55-.66,2.47-.66s1.76,.2,2.48,.61c.72,.41,1.28,.97,1.68,1.7,.4,.73,.59,1.56,.58,2.51,0,.16,0,.32-.02,.49-.01,.17-.03,.35-.06,.55h-7.4c.04,.53,.19,1,.45,1.41,.26,.41,.59,.72,1,.95,.41,.23,.87,.34,1.39,.34,.67,0,1.25-.13,1.74-.39,.49-.26,.84-.61,1.04-1.05l1.64,.58c-.4,.81-.98,1.45-1.75,1.9-.77,.45-1.65,.68-2.65,.68Zm2.56-6.04c0-.48-.12-.91-.36-1.3-.24-.39-.56-.69-.97-.91-.41-.22-.86-.33-1.37-.33-.45,0-.87,.11-1.25,.33-.38,.22-.7,.52-.96,.9-.26,.38-.42,.82-.49,1.31h5.4Z"
       id="path4"
       style="fill:#ffffff" />
    <path
       class="cls-3"
       d="M88.68,7.83h1.88v14.4h-1.88V7.83Z"
       id="path5"
       style="fill:#ffffff" />
    <path
       class="cls-3"
       d="M97.4,22.37c-.95,0-1.8-.21-2.55-.63-.75-.42-1.34-1.01-1.77-1.78-.43-.77-.64-1.67-.64-2.71s.22-1.97,.66-2.74c.44-.77,1.04-1.37,1.8-1.79,.76-.42,1.61-.63,2.56-.63s1.8,.21,2.57,.63c.77,.42,1.37,1.01,1.81,1.78,.44,.77,.66,1.67,.66,2.71s-.22,1.97-.67,2.74c-.45,.77-1.06,1.37-1.83,1.79-.77,.42-1.64,.63-2.6,.63Zm-.02-1.72c.53,0,1.03-.12,1.5-.37,.47-.25,.85-.62,1.15-1.13,.3-.51,.45-1.15,.45-1.94s-.14-1.41-.43-1.91c-.29-.5-.66-.87-1.13-1.12s-.97-.37-1.5-.37-1,.12-1.45,.37c-.45,.25-.81,.62-1.09,1.13s-.42,1.15-.42,1.94,.14,1.41,.41,1.91,.63,.87,1.07,1.12c.44,.25,.92,.37,1.44,.37Z"
       id="path6"
       style="fill:#ffffff" />
    <path
       class="cls-3"
       d="M106.08,20.53l.2-.06v5.76h-1.88V12.23h1.72l.14,1.5c.32-.45,.76-.84,1.33-1.16,.57-.32,1.26-.48,2.07-.48,.88,0,1.66,.21,2.34,.64s1.22,1.02,1.61,1.79c.39,.77,.59,1.67,.59,2.71s-.19,1.93-.57,2.7-.91,1.37-1.59,1.8-1.47,.64-2.38,.64-1.6-.18-2.21-.53c-.61-.35-1.06-.79-1.37-1.31Zm6.08-3.3c0-1.03-.27-1.85-.81-2.48-.54-.63-1.24-.94-2.11-.94-.56,0-1.06,.13-1.5,.4-.44,.27-.79,.65-1.06,1.16s-.4,1.13-.4,1.86,.13,1.33,.4,1.84c.27,.51,.62,.9,1.06,1.17,.44,.27,.94,.41,1.5,.41,.87,0,1.57-.31,2.11-.94,.54-.63,.81-1.45,.81-2.48Z"
       id="path7"
       style="fill:#ffffff" />
    <path
       class="cls-3"
       d="M120.42,22.37c-.96,0-1.81-.22-2.55-.67-.74-.45-1.32-1.06-1.74-1.85s-.63-1.69-.63-2.7,.21-1.84,.62-2.6c.41-.76,.98-1.36,1.71-1.8,.73-.44,1.55-.66,2.47-.66s1.76,.2,2.48,.61c.72,.41,1.28,.97,1.68,1.7,.4,.73,.59,1.56,.58,2.51,0,.16,0,.32-.02,.49-.01,.17-.03,.35-.06,.55h-7.4c.04,.53,.19,1,.45,1.41,.26,.41,.59,.72,1,.95,.41,.23,.87,.34,1.39,.34,.67,0,1.25-.13,1.74-.39,.49-.26,.84-.61,1.04-1.05l1.64,.58c-.4,.81-.98,1.45-1.75,1.9-.77,.45-1.65,.68-2.65,.68Zm2.56-6.04c0-.48-.12-.91-.36-1.3-.24-.39-.56-.69-.97-.91-.41-.22-.86-.33-1.37-.33-.45,0-.87,.11-1.25,.33-.38,.22-.7,.52-.96,.9-.26,.38-.42,.82-.49,1.31h5.4Z"
       id="path8"
       style="fill:#ffffff" />
    <path
       class="cls-3"
       d="M126.94,12.23h1.72l.12,1.34c.28-.35,.6-.64,.97-.87,.37-.23,.77-.4,1.2-.49,.43-.09,.88-.09,1.35,.02v1.78c-.44-.11-.87-.12-1.28-.04-.41,.08-.78,.25-1.11,.51-.33,.26-.59,.6-.79,1.03-.2,.43-.3,.94-.3,1.54v5.18h-1.88V12.23Z"
       id="path9"
       style="fill:#ffffff" />
    <path
       class="cls-3"
       d="M139.14,8.23h2v6.06h7.04v-6.06h1.98v14h-1.98v-6.26h-7.04v6.26h-2V8.23Z"
       id="path10"
       style="fill:#ffffff" />
    <path
       class="cls-3"
       d="M161.16,22.23h-1.72l-.14-1.18c-.32,.43-.72,.75-1.21,.98-.49,.23-1.03,.34-1.63,.34-.77,0-1.45-.16-2.02-.49-.57-.33-1.02-.81-1.33-1.44s-.47-1.42-.47-2.37v-5.84h1.9v5.6c0,.92,.19,1.62,.57,2.1s.96,.72,1.73,.72,1.36-.25,1.79-.74c.43-.49,.65-1.23,.65-2.2v-5.48h1.88v10Z"
       id="path11"
       style="fill:#ffffff" />
    <path
       class="cls-3"
       d="M165.3,13.93c.31-.52,.76-.96,1.37-1.31,.61-.35,1.34-.53,2.21-.53s1.7,.21,2.38,.64,1.21,1.03,1.59,1.8c.38,.77,.57,1.67,.57,2.7s-.19,1.93-.58,2.7-.92,1.37-1.6,1.8c-.68,.43-1.47,.64-2.36,.64-.81,0-1.5-.16-2.07-.48-.57-.32-1.01-.71-1.33-1.16l-.14,1.5h-1.72V7.83h1.88v6.16l-.2-.06Zm6.08,3.3c0-1.03-.27-1.85-.81-2.48-.54-.63-1.24-.94-2.11-.94-.56,0-1.06,.14-1.5,.41-.44,.27-.79,.66-1.06,1.17s-.4,1.12-.4,1.84,.13,1.34,.4,1.85,.62,.9,1.06,1.17c.44,.27,.94,.4,1.5,.4,.87,0,1.57-.31,2.11-.94,.54-.63,.81-1.45,.81-2.48Z"
       id="path12"
       style="fill:#ffffff" />
  </g>
  <g
     id="g15">
    <circle
       class="cls-2"
       cx="16.97"
       cy="16.03"
       r="16.03"
       id="circle12" />
    <rect
       class="cls-4"
       y="6.48"
       width="33.95"
       height="19.1"
       id="rect12" />
    <g
       id="g14">
      <path
         class="cls-1"
         d="M10.77,16.04l4.06,4.03-1.51,1.48-5.51-5.51,5.51-5.54,1.51,1.48-4.06,4.06Z"
         id="path13" />
      <path
         class="cls-1"
         d="M20.6,10.5l5.54,5.54-5.54,5.51-1.48-1.48,4.03-4.03-4.03-4.06,1.48-1.48Z"
         id="path14" />
    </g>
  </g>
</svg>
